<svg preserveAspectRatio="none" width="100%" height="100%" overflow="visible" style="display: block;" viewBox="0 0 18 9" fill="none" xmlns="http://www.w3.org/2000/svg">
<path id="&#244;&#128;&#186;&#184;" d="M0.936466 8.20308C1.15858 8.25711 1.44072 8.28412 1.78289 8.28412H15.2896C15.6378 8.28412 15.9199 8.25711 16.136 8.20308C16.3521 8.14305 16.5322 8.041 16.6763 7.89693C16.8204 7.75286 16.9224 7.57277 16.9825 7.35666C17.0425 7.13455 17.0725 6.85241 17.0725 6.51024V1.77388C17.0725 1.43171 17.0425 1.15257 16.9825 0.936466C16.9224 0.714355 16.8204 0.531264 16.6763 0.387193C16.5382 0.249124 16.3581 0.150075 16.136 0.0900448C15.9139 0.0300149 15.6318 0 15.2896 0H1.8099C1.45572 0 1.16458 0.0300149 0.936466 0.0900448C0.714355 0.144072 0.534266 0.240119 0.396197 0.378188C0.252125 0.52226 0.150075 0.708353 0.0900448 0.936466C0.0300149 1.15858 0 1.44672 0 1.8009V6.51024C0 6.85241 0.0300149 7.13455 0.0900448 7.35666C0.150075 7.57277 0.252125 7.75286 0.396197 7.89693C0.540269 8.041 0.720358 8.14305 0.936466 8.20308Z" fill="var(--fill-0, white)"/>
</svg>
