<svg preserveAspectRatio="none" width="100%" height="100%" overflow="visible" style="display: block;" viewBox="0 0 24 19" fill="none" xmlns="http://www.w3.org/2000/svg">
<path id="&#244;&#128;&#143;&#167;" d="M3.98336 19C2.68885 19 1.69981 18.6641 1.01626 17.9924C0.338752 17.3207 0 16.3491 0 15.0777V3.92235C0 2.65088 0.338752 1.67929 1.01626 1.00758C1.69981 0.335859 2.68885 0 3.98336 0H20.0076C21.3021 0 22.2911 0.335859 22.9747 1.00758C23.6582 1.67929 24 2.65088 24 3.92235V15.0777C24 16.3491 23.6582 17.3207 22.9747 17.9924C22.2911 18.6641 21.3021 19 20.0076 19H3.98336ZM4.25558 16.3371H19.7444C20.2526 16.3371 20.6397 16.2082 20.9059 15.9503C21.1781 15.6924 21.3142 15.2996 21.3142 14.7718V4.23722C21.3142 3.70344 21.1781 3.30761 20.9059 3.04972C20.6397 2.79182 20.2526 2.66288 19.7444 2.66288H4.25558C3.7414 2.66288 3.35123 2.79182 3.08507 3.04972C2.8189 3.30761 2.68582 3.70344 2.68582 4.23722V14.7718C2.68582 15.2996 2.8189 15.6924 3.08507 15.9503C3.35123 16.2082 3.7414 16.3371 4.25558 16.3371Z" fill="var(--fill-0, white)"/>
</svg>
