<svg preserveAspectRatio="none" width="100%" height="100%" overflow="visible" style="display: block;" viewBox="0 0 39 89" fill="none" xmlns="http://www.w3.org/2000/svg">
<g id="1">
<path d="M26.7627 88.7783C25.9424 88.7783 25.2861 88.6553 24.7939 88.4092C24.3018 88.1631 23.9326 87.7939 23.6865 87.3018C23.4404 86.8096 23.3174 86.1533 23.3174 85.333V15.0732H22.9482L3.81445 28.3008C3.11719 28.752 2.48145 28.957 1.90723 28.916C1.37402 28.834 0.922852 28.5879 0.553711 28.1777C0.18457 27.7676 0 27.1318 0 26.2705V19.3184C0 18.5391 0.0615234 17.8828 0.18457 17.3496C0.348633 16.8164 0.594727 16.3447 0.922852 15.9346C1.29199 15.5244 1.8252 15.0938 2.52246 14.6426L20.8564 1.66113C21.5127 1.16895 22.0869 0.820312 22.5791 0.615234C23.0713 0.369141 23.5635 0.205078 24.0557 0.123047C24.5889 0.0410156 25.2861 0 26.1475 0H35.376C36.2373 0 36.8936 0.143555 37.3447 0.430664C37.8369 0.676758 38.2061 1.0459 38.4521 1.53809C38.7393 1.98926 38.8828 2.64551 38.8828 3.50684V85.2715C38.8828 86.1328 38.7393 86.8096 38.4521 87.3018C38.2061 87.7529 37.8369 88.1221 37.3447 88.4092C36.8936 88.6553 36.2373 88.7783 35.376 88.7783H26.7627Z" fill="white" style="mix-blend-mode:plus-lighter"/>
</g>
</svg>
