<svg preserveAspectRatio="none" width="100%" height="100%" overflow="visible" style="display: block;" viewBox="0 0 58 46" fill="none" xmlns="http://www.w3.org/2000/svg">
<g id="Gauge">
<path d="M28.6963 0.00134108C32.4939 -0.0384285 36.2491 0.668941 39.7529 2.06775C38.9946 2.48129 38.3366 3.10189 37.8731 3.90466C37.2035 5.06443 37.0655 6.38571 37.3838 7.58533C34.646 6.5132 31.7191 5.96936 28.7588 6.00036C24.7015 6.04295 20.7273 7.15821 17.2403 9.23279C13.7531 11.3075 10.8767 14.2684 8.90334 17.8138C6.93003 21.3593 5.92957 25.3643 6.00392 29.4213C6.07839 33.4781 7.22426 37.4437 9.32619 40.9144C10.1843 42.3316 9.73162 44.1763 8.31447 45.0345C6.89735 45.8924 5.05257 45.4388 4.19435 44.0218C1.54411 39.6457 0.0986894 34.6459 0.00489993 29.5306C-0.0888204 24.4155 1.17218 19.3662 3.66017 14.8959C6.14837 10.4255 9.77598 6.69246 14.1729 4.07654C18.5697 1.46075 23.5805 0.0549545 28.6963 0.00134108ZM46.9502 6.22302C49.7917 8.46264 52.1997 11.2224 54.0381 14.3685C56.6193 18.7858 57.9866 23.8071 58 28.9232C58.0134 34.0394 56.6724 39.0686 54.1143 43.4994C53.2857 44.9339 51.4513 45.4254 50.0166 44.597C48.582 43.7686 48.0908 41.9341 48.919 40.4994C50.9478 36.9854 52.0106 32.9965 52 28.9388C51.9893 24.8812 50.9056 20.8982 48.8584 17.3949C47.4268 14.9449 45.5582 12.792 43.3574 11.0336C44.5554 10.7094 45.6303 9.92961 46.2998 8.7699C46.7634 7.96687 46.9714 7.08678 46.9502 6.22302Z" fill="var(--fill-0, #333333)" style="mix-blend-mode:plus-lighter"/>
</g>
</svg>
