<svg preserveAspectRatio="none" width="100%" height="100%" overflow="visible" style="display: block;" viewBox="0 0 29 29" fill="none" xmlns="http://www.w3.org/2000/svg">
<g id="Sun">
<path id="&#244;&#128;&#134;&#174;" opacity="0.5" d="M14.1299 5.19238C13.7744 5.19238 13.474 5.06543 13.2285 4.81152C12.9831 4.55762 12.8604 4.25716 12.8604 3.91016V1.26953C12.8604 0.922526 12.9831 0.626302 13.2285 0.380859C13.474 0.126953 13.7744 0 14.1299 0C14.4684 0 14.7604 0.126953 15.0059 0.380859C15.2598 0.626302 15.3867 0.922526 15.3867 1.26953V3.91016C15.3867 4.25716 15.2598 4.55762 15.0059 4.81152C14.7604 5.06543 14.4684 5.19238 14.1299 5.19238ZM20.4521 7.83301C20.2067 7.59603 20.084 7.2998 20.084 6.94434C20.084 6.58887 20.2067 6.28841 20.4521 6.04297L22.3311 4.16406C22.568 3.91862 22.8643 3.7959 23.2197 3.7959C23.5752 3.78743 23.8757 3.90592 24.1211 4.15137C24.3665 4.39681 24.4893 4.69727 24.4893 5.05273C24.4893 5.4082 24.3665 5.70866 24.1211 5.9541L22.2549 7.83301C22.0094 8.08691 21.709 8.21387 21.3535 8.21387C20.998 8.2054 20.6976 8.07845 20.4521 7.83301ZM23.0674 14.1553C23.0674 13.8083 23.1901 13.512 23.4355 13.2666C23.6895 13.0127 23.9941 12.8857 24.3496 12.8857H26.9775C27.3245 12.8857 27.6208 13.0127 27.8662 13.2666C28.1201 13.512 28.2471 13.8083 28.2471 14.1553C28.2471 14.5023 28.1201 14.7985 27.8662 15.0439C27.6208 15.2894 27.3245 15.4121 26.9775 15.4121H24.3496C23.9941 15.4121 23.6895 15.2894 23.4355 15.0439C23.1901 14.7985 23.0674 14.5023 23.0674 14.1553ZM20.4521 20.4775C20.6891 20.2406 20.9854 20.1221 21.3408 20.1221C21.6963 20.1221 21.9967 20.2406 22.2422 20.4775L24.1211 22.3564C24.3665 22.5934 24.4893 22.8896 24.4893 23.2451C24.4893 23.6006 24.3708 23.901 24.1338 24.1465C23.8883 24.3835 23.5879 24.502 23.2324 24.502C22.877 24.5104 22.5807 24.4004 22.3438 24.1719L20.4521 22.2676C20.2067 22.0306 20.084 21.7386 20.084 21.3916C20.084 21.0361 20.2067 20.7314 20.4521 20.4775ZM14.1299 23.1182C14.4684 23.1182 14.7604 23.2409 15.0059 23.4863C15.2598 23.7402 15.3867 24.0407 15.3867 24.3877V27.0283C15.3867 27.3753 15.2598 27.6715 15.0059 27.917C14.7604 28.1709 14.4684 28.2979 14.1299 28.2979C13.7744 28.2979 13.474 28.1709 13.2285 27.917C12.9831 27.6715 12.8604 27.3753 12.8604 27.0283V24.3877C12.8604 24.0407 12.9831 23.7402 13.2285 23.4863C13.474 23.2409 13.7744 23.1182 14.1299 23.1182ZM7.79492 20.4775C8.0319 20.7314 8.15039 21.0361 8.15039 21.3916C8.15039 21.7386 8.02767 22.0306 7.78223 22.2676L5.90332 24.1592C5.66634 24.3877 5.36589 24.4977 5.00195 24.4893C4.64648 24.4893 4.34603 24.3708 4.10059 24.1338C3.87207 23.8883 3.75781 23.5879 3.75781 23.2324C3.75781 22.877 3.88053 22.5807 4.12598 22.3438L5.99219 20.4775C6.23763 20.2406 6.53809 20.1221 6.89355 20.1221C7.24902 20.1221 7.54948 20.2406 7.79492 20.4775ZM5.17969 14.1553C5.17969 14.5023 5.05273 14.7985 4.79883 15.0439C4.54492 15.2894 4.24447 15.4121 3.89746 15.4121H1.25684C0.918294 15.4121 0.62207 15.2894 0.368164 15.0439C0.122721 14.7985 0 14.5023 0 14.1553C0 13.8083 0.122721 13.512 0.368164 13.2666C0.62207 13.0127 0.918294 12.8857 1.25684 12.8857H3.89746C4.24447 12.8857 4.54492 13.0127 4.79883 13.2666C5.05273 13.512 5.17969 13.8083 5.17969 14.1553ZM7.78223 7.83301C7.53678 8.07845 7.23633 8.20117 6.88086 8.20117C6.53385 8.20117 6.23763 8.07845 5.99219 7.83301L4.12598 5.94141C3.889 5.70443 3.77051 5.4082 3.77051 5.05273C3.77051 4.69727 3.89323 4.39681 4.13867 4.15137C4.38411 3.90592 4.68457 3.78743 5.04004 3.7959C5.39551 3.80436 5.69173 3.92708 5.92871 4.16406L7.79492 6.04297C8.0319 6.27995 8.15039 6.5804 8.15039 6.94434C8.15039 7.2998 8.02767 7.59603 7.78223 7.83301Z" fill="var(--fill-0, #FFCC00)"/>
<path id="&#244;&#128;&#134;&#174;_2" d="M14.1172 20.7822C13.2031 20.7822 12.3441 20.613 11.54 20.2744C10.736 19.9274 10.0293 19.4535 9.41992 18.8525C8.81901 18.2432 8.34505 17.5365 7.99805 16.7324C7.65951 15.9284 7.49023 15.0693 7.49023 14.1553C7.49023 13.2327 7.65951 12.3737 7.99805 11.5781C8.34505 10.7741 8.81901 10.0716 9.41992 9.4707C10.0293 8.86133 10.736 8.38314 11.54 8.03613C12.3441 7.68913 13.2031 7.51562 14.1172 7.51562C15.0312 7.51562 15.8903 7.68913 16.6943 8.03613C17.4984 8.38314 18.2008 8.86133 18.8018 9.4707C19.4111 10.0716 19.8851 10.7741 20.2236 11.5781C20.5706 12.3737 20.7441 13.2327 20.7441 14.1553C20.7441 15.0693 20.5706 15.9284 20.2236 16.7324C19.8851 17.5365 19.4111 18.2432 18.8018 18.8525C18.2008 19.4535 17.4984 19.9274 16.6943 20.2744C15.8903 20.613 15.0312 20.7822 14.1172 20.7822Z" fill="var(--fill-0, #FFCC00)"/>
</g>
</svg>
