<svg preserveAspectRatio="none" width="100%" height="100%" overflow="visible" style="display: block;" viewBox="0 0 83 108" fill="none" xmlns="http://www.w3.org/2000/svg">
<g id="Hands">
<path fill-rule="evenodd" clip-rule="evenodd" d="M29.0196 34.7643L24.7546 31.6779C24.9135 30.6891 24.5243 29.6458 23.6569 29.0198L4.3799 15.0306C3.15179 14.1442 1.41683 14.4172 0.524274 15.6373C-0.368123 16.8572 -0.0931447 18.5808 1.13512 19.4672L20.412 33.4562C21.2794 34.0822 22.3985 34.1276 23.296 33.6719L27.5612 36.7582L29.0196 34.7643Z" fill="white" style="mix-blend-mode:plus-lighter"/>
<path fill-rule="evenodd" clip-rule="evenodd" d="M30.4256 39.199C29.3696 39.199 28.5135 38.3428 28.5135 37.2868C28.5135 36.2308 29.3696 35.3747 30.4256 35.3747C31.4816 35.3747 32.3377 36.2308 32.3377 37.2868C32.3377 38.3428 31.4816 39.199 30.4256 39.199ZM81.5424 1.07993C80.6727 -0.0887235 78.9813 -0.350204 77.784 0.498883L37.9948 28.7424C37.1494 29.3421 36.7698 30.3413 36.9248 31.2886L32.799 34.2144C31.0546 32.979 28.6143 33.357 27.3473 35.0591C26.0797 36.7622 26.4665 39.1457 28.2113 40.3829C29.9557 41.6202 32.3978 41.2427 33.6653 39.5396C34.4281 38.5151 34.591 37.2441 34.2203 36.1245L38.3465 33.1984C39.2216 33.6349 40.3123 33.5916 41.1578 32.992L80.9473 4.74843C82.1444 3.89935 82.4123 2.24859 81.5424 1.07993Z" fill="white" style="mix-blend-mode:plus-lighter"/>
<path d="M30.4869 29.9869C30.2108 29.9869 29.9869 30.2108 29.9869 30.4869V33.3562C29.9869 33.6324 30.2108 33.8562 30.4869 33.8562C30.7631 33.8562 30.9869 33.6324 30.9869 33.3562V30.4869C30.9869 30.2108 30.7631 29.9869 30.4869 29.9869Z" fill="white" style="mix-blend-mode:plus-lighter"/>
<path d="M30.4869 40.6275C30.2108 40.6275 29.9869 40.8513 29.9869 41.1274V106.873C29.9869 107.149 30.2108 107.373 30.4869 107.373C30.7631 107.373 30.9869 107.149 30.9869 106.873V41.1275C30.9869 40.8513 30.7631 40.6275 30.4869 40.6275Z" fill="white" style="mix-blend-mode:plus-lighter"/>
</g>
</svg>
