<svg preserveAspectRatio="none" width="100%" height="100%" overflow="visible" style="display: block;" viewBox="0 0 23 23" fill="none" xmlns="http://www.w3.org/2000/svg">
<g id="Bluetooth">
<rect width="23" height="23" rx="11.5" fill="var(--fill-0, #0088FF)"/>
<path id="Vector" fill-rule="evenodd" clip-rule="evenodd" d="M11.637 10.198V7.76612L13.1336 8.99246L11.637 10.198ZM11.637 15.2385V12.8066L13.1336 14.0122L11.637 15.2385ZM10.3795 16.2882C10.3795 16.9741 11.2421 17.2339 11.8033 16.7558L14.2768 14.6565C14.5054 14.4694 14.6093 14.22 14.6093 13.9706C14.6093 13.7212 14.495 13.4717 14.2664 13.2951L12.0319 11.4971L14.2664 9.69916C14.495 9.5121 14.599 9.26267 14.6093 9.02364C14.6093 8.7846 14.5054 8.53518 14.2768 8.33772L11.8033 6.24878C11.2317 5.76032 10.3795 6.03053 10.3795 6.71645V10.2604L8.70627 8.87814C8.58155 8.77421 8.43605 8.72225 8.28016 8.72225C7.9372 8.72225 7.66699 8.99246 7.66699 9.33542C7.66699 9.52249 7.73974 9.70956 7.91642 9.84466L9.98457 11.5075L7.91642 13.1703C7.73974 13.3054 7.66699 13.4925 7.66699 13.6796C7.66699 14.0537 7.9476 14.2928 8.28016 14.2928C8.42566 14.2928 8.58155 14.2408 8.70627 14.1369L10.3795 12.7546V16.2882Z" fill="var(--fill-0, white)"/>
</g>
</svg>
