<svg preserveAspectRatio="none" width="100%" height="100%" overflow="visible" style="display: block;" viewBox="0 0 24 20" fill="none" xmlns="http://www.w3.org/2000/svg">
<path id="&#244;&#128;&#143;&#167;" d="M3.96197 19.0175C2.67133 19.0175 1.68684 18.6813 1.0085 18.009C0.336167 17.3366 0 16.3611 0 15.0825V3.92595C0 2.64732 0.336167 1.67483 1.0085 1.0085C1.68684 0.336167 2.67133 0 3.96197 0H19.8639C21.1485 0 22.127 0.336167 22.7993 1.0085C23.4777 1.68084 23.8169 2.65332 23.8169 3.92595V6.60028H21.1605V4.23211C21.1605 3.69784 21.0255 3.30164 20.7553 3.04351C20.4852 2.78539 20.098 2.65632 19.5938 2.65632H4.2231C3.71885 2.65632 3.33166 2.78539 3.06152 3.04351C2.79739 3.30164 2.66533 3.69784 2.66533 4.23211V14.7764C2.66533 15.3106 2.79739 15.7068 3.06152 15.9649C3.33166 16.2231 3.71885 16.3521 4.2231 16.3521H7.17657V19.0175H3.96197Z" fill="var(--fill-0, white)" fill-opacity="0.5"/>
</svg>
