<svg preserveAspectRatio="none" width="100%" height="100%" overflow="visible" style="display: block;" viewBox="0 0 30 23" fill="none" xmlns="http://www.w3.org/2000/svg">
<g id="Speaker">
<path id="&#244;&#128;&#138;&#167;" opacity="0.5" d="M20.059 16.9863C19.7543 16.7832 19.5765 16.5124 19.5258 16.1738C19.4834 15.8353 19.5808 15.484 19.8177 15.1201C20.1648 14.6123 20.4356 14.0368 20.6302 13.3935C20.8249 12.7418 20.9222 12.0605 20.9222 11.3496C20.9222 10.6387 20.8249 9.95734 20.6302 9.30565C20.444 8.65396 20.1732 8.07843 19.8177 7.57909C19.5723 7.22362 19.475 6.87661 19.5258 6.53807C19.5765 6.19106 19.7543 5.916 20.059 5.71287C20.3298 5.53514 20.6218 5.4759 20.9349 5.53514C21.2481 5.59438 21.4978 5.75942 21.684 6.03026C22.2002 6.7158 22.6023 7.52407 22.89 8.45506C23.1778 9.37759 23.3217 10.3424 23.3217 11.3496C23.3217 12.3568 23.1778 13.3216 22.89 14.2441C22.6023 15.1667 22.2002 15.9707 21.684 16.6562C21.4978 16.9355 21.2481 17.1048 20.9349 17.164C20.6218 17.2148 20.3298 17.1556 20.059 16.9863ZM25.1244 20.376C24.8282 20.1898 24.6589 19.9316 24.6166 19.6015C24.5743 19.263 24.6631 18.9287 24.8832 18.5986C25.5518 17.5999 26.0723 16.4785 26.4447 15.2344C26.8171 13.9902 27.0033 12.6953 27.0033 11.3496C27.0033 10.0039 26.8171 8.70897 26.4447 7.46483C26.0808 6.21222 25.5603 5.0908 24.8832 4.10057C24.6547 3.77049 24.5616 3.44041 24.6039 3.11034C24.6547 2.77179 24.8282 2.50942 25.1244 2.32323C25.4121 2.13703 25.7126 2.07778 26.0258 2.14549C26.3474 2.20474 26.6055 2.37824 26.8002 2.666C27.6296 3.8255 28.2686 5.16274 28.7172 6.67772C29.1742 8.18423 29.4027 9.74152 29.4027 11.3496C29.4027 12.9577 29.1742 14.515 28.7172 16.0215C28.2601 17.5195 27.6211 18.8568 26.8002 20.0332C26.6055 20.3209 26.3474 20.4944 26.0258 20.5537C25.7126 20.6129 25.4121 20.5537 25.1244 20.376Z" fill="var(--fill-0, #00C0E8)"/>
<path id="&#244;&#128;&#138;&#167;_2" d="M13.8887 22.7246C13.5671 22.7246 13.2624 22.6527 12.9746 22.5088C12.6868 22.3734 12.3864 22.1576 12.0732 21.8613L6.7666 16.834C6.68197 16.7663 6.58464 16.7324 6.47461 16.7324H2.86914C1.94661 16.7324 1.23568 16.4785 0.736328 15.9707C0.245443 15.4629 0 14.7139 0 13.7236V9.01367C0 8.0319 0.245443 7.28711 0.736328 6.7793C1.23568 6.27148 1.94661 6.01758 2.86914 6.01758H6.47461C6.58464 6.01758 6.68197 5.97949 6.7666 5.90332L12.0732 0.939453C12.4287 0.609375 12.7376 0.372396 13 0.228516C13.2624 0.0761719 13.5501 0 13.8633 0C14.3542 0 14.752 0.165039 15.0566 0.495117C15.3698 0.825195 15.5264 1.22721 15.5264 1.70117V21.0869C15.5264 21.5524 15.374 21.9417 15.0693 22.2549C14.7646 22.568 14.3711 22.7246 13.8887 22.7246Z" fill="var(--fill-0, #00C0E8)"/>
</g>
</svg>
