<svg preserveAspectRatio="none" width="100%" height="100%" overflow="visible" style="display: block;" viewBox="0 0 22 241" fill="none" xmlns="http://www.w3.org/2000/svg">
<g id="Page Control">
<g id="Cellular">
<path d="M16.19 120.22C16.34 120.4 16.53 120.49 16.77 120.5C17 120.5 17.22 120.4 17.42 120.19C18.08 119.49 18.58 118.67 18.92 117.74C19.26 116.8 19.44 115.81 19.44 114.77C19.44 114.07 19.36 113.4 19.2 112.75C19.04 112.1 18.81 111.48 18.51 110.9C18.21 110.32 17.85 109.81 17.42 109.35C17.22 109.14 17.01 109.03 16.77 109.04C16.54 109.04 16.34 109.14 16.19 109.31C16.05 109.48 15.99 109.66 16.02 109.86C16.05 110.06 16.15 110.25 16.31 110.43C16.82 110.99 17.21 111.65 17.48 112.4C17.75 113.15 17.89 113.94 17.89 114.78C17.89 115.62 17.75 116.41 17.48 117.16C17.21 117.91 16.82 118.56 16.31 119.13C16.15 119.31 16.05 119.5 16.02 119.7C15.99 119.9 16.04 120.08 16.19 120.25V120.22ZM13.76 117.92C13.91 118.1 14.1 118.19 14.35 118.19C14.59 118.19 14.8 118.09 14.98 117.88C15.32 117.48 15.58 117.01 15.76 116.47C15.94 115.93 16.04 115.36 16.04 114.77C16.04 114.18 15.95 113.61 15.76 113.07C15.58 112.53 15.32 112.06 14.98 111.66C14.8 111.45 14.59 111.34 14.35 111.34C14.11 111.34 13.91 111.43 13.76 111.61C13.62 111.78 13.57 111.95 13.6 112.15C13.63 112.34 13.72 112.53 13.85 112.72C14.05 112.99 14.2 113.3 14.32 113.66C14.44 114.02 14.49 114.39 14.49 114.77C14.49 115.15 14.43 115.52 14.32 115.88C14.21 116.24 14.05 116.56 13.84 116.82C13.71 117.01 13.62 117.2 13.59 117.39C13.56 117.58 13.61 117.76 13.75 117.93L13.76 117.92ZM9.13 114.76C9.13 115.07 9.21 115.34 9.37 115.59C9.53 115.84 9.73 116.03 9.99 116.16V123.04C9.99 123.28 10.06 123.48 10.2 123.63C10.34 123.78 10.51 123.86 10.73 123.86C10.95 123.86 11.13 123.79 11.27 123.64C11.4 123.49 11.47 123.29 11.47 123.04V116.16C11.72 116.03 11.92 115.84 12.08 115.59C12.24 115.34 12.32 115.06 12.32 114.76C12.32 114.46 12.25 114.2 12.11 113.96C11.97 113.72 11.78 113.53 11.54 113.38C11.3 113.24 11.03 113.16 10.74 113.16C10.45 113.16 10.18 113.23 9.94 113.38C9.7 113.52 9.51 113.72 9.37 113.96C9.23 114.2 9.16 114.47 9.16 114.76H9.13ZM5.39 114.76C5.39 115.36 5.48 115.92 5.67 116.46C5.85 117 6.11 117.47 6.45 117.87C6.63 118.08 6.84 118.18 7.08 118.18C7.32 118.18 7.52 118.09 7.67 117.91C7.81 117.74 7.86 117.57 7.83 117.37C7.8 117.18 7.71 116.99 7.58 116.8C7.38 116.54 7.22 116.23 7.1 115.86C6.98 115.49 6.93 115.13 6.93 114.75C6.93 114.37 6.99 114 7.1 113.64C7.22 113.28 7.37 112.96 7.57 112.7C7.71 112.51 7.79 112.32 7.82 112.13C7.85 111.94 7.8 111.76 7.66 111.59C7.51 111.41 7.32 111.32 7.07 111.32C6.83 111.32 6.62 111.42 6.44 111.64C6.1 112.04 5.84 112.51 5.66 113.05C5.48 113.59 5.38 114.16 5.38 114.75L5.39 114.76ZM2 114.76C2 115.8 2.17 116.79 2.52 117.73C2.86 118.67 3.36 119.49 4.02 120.18C4.22 120.39 4.44 120.5 4.67 120.49C4.9 120.49 5.09 120.39 5.24 120.21C5.38 120.04 5.44 119.86 5.41 119.66C5.38 119.46 5.28 119.27 5.12 119.09C4.61 118.53 4.22 117.87 3.95 117.12C3.68 116.37 3.54 115.58 3.54 114.74C3.54 113.9 3.68 113.11 3.95 112.36C4.22 111.61 4.61 110.96 5.12 110.39C5.28 110.21 5.38 110.02 5.41 109.82C5.44 109.62 5.39 109.44 5.24 109.27C5.09 109.09 4.9 109 4.67 109C4.44 109 4.22 109.1 4.02 109.31C3.59 109.77 3.23 110.28 2.93 110.86C2.63 111.44 2.4 112.05 2.24 112.71C2.08 113.36 2 114.04 2 114.73V114.76Z" fill="var(--fill-0, black)" fill-opacity="0.25" style="mix-blend-mode:plus-darker"/>
</g>
<g id="Music">
<path d="M6.32 70.2112C6.61 70.2112 6.93 70.1512 7.27 70.0312C7.61 69.9112 7.94 69.7312 8.24 69.4712C8.55 69.2212 8.8 68.8812 8.99 68.4712C9.18 68.0612 9.28 67.5612 9.28 66.9812V59.5812C9.28 59.4012 9.3 59.2812 9.34 59.2312C9.38 59.1812 9.48 59.1412 9.64 59.1112L16.09 57.7812C16.27 57.7412 16.39 57.7412 16.45 57.7812C16.51 57.8212 16.54 57.9212 16.54 58.0712L16.59 63.0312C16.59 63.3912 16.42 63.6112 16.09 63.6812L14.91 63.9412C13.29 64.2912 12.48 65.0812 12.48 66.3112C12.48 66.7212 12.58 67.0912 12.79 67.4112C12.99 67.7312 13.27 67.9912 13.63 68.1712C13.98 68.3512 14.39 68.4512 14.84 68.4512C15.14 68.4512 15.45 68.3912 15.79 68.2812C16.13 68.1712 16.45 67.9912 16.75 67.7412C17.05 67.4912 17.3 67.1712 17.49 66.7612C17.68 66.3612 17.78 65.8612 17.78 65.2812V54.2812C17.78 53.8812 17.68 53.6012 17.47 53.4612C17.26 53.3212 16.93 53.2912 16.48 53.3812L8.88 54.9512C8.3 55.0712 8.01 55.3812 8.01 55.8812L8.06 64.8212C8.06 65.1612 7.92 65.3612 7.63 65.4112L6.39 65.6712C5.59 65.8412 4.99 66.1312 4.59 66.5412C4.2 66.9512 4 67.4612 4 68.0912C4 68.7212 4.22 69.2312 4.66 69.6212C5.1 70.0212 5.65 70.2212 6.33 70.2212L6.32 70.2112Z" fill="var(--fill-0, black)" fill-opacity="0.25" style="mix-blend-mode:plus-darker"/>
</g>
<path id="Favorites" d="M11.005 15.82C11.1151 15.82 11.2552 15.78 11.4053 15.71C11.5553 15.63 11.7054 15.55 11.8555 15.46C13.3064 14.52 14.5572 13.54 15.6279 12.5C16.6986 11.46 17.5291 10.4 18.1194 9.3C18.7098 8.2 19 7.1 19 5.98C19 5.24 18.8799 4.56 18.6398 3.96C18.3996 3.35 18.0694 2.83 17.6592 2.38C17.2389 1.94 16.7586 1.6 16.2083 1.36C15.6579 1.12 15.0675 1 14.4371 1C13.6567 1 12.9762 1.2 12.3959 1.59C11.8155 1.98 11.3552 2.5 11.005 3.14C10.6648 2.5 10.2045 1.99 9.62414 1.59C9.04378 1.19 8.36335 1 7.57286 1C6.94246 1 6.35209 1.12 5.80175 1.36C5.25141 1.6 4.77111 1.94 4.35084 2.38C3.93058 2.82 3.60038 3.35 3.36023 3.96C3.12007 4.57 3 5.24 3 5.98C3 7.09 3.29018 8.2 3.88055 9.3C4.47092 10.4 5.30144 11.46 6.37211 12.5C7.44278 13.54 8.70357 14.52 10.1545 15.46C10.2946 15.55 10.4447 15.64 10.6048 15.71C10.7548 15.79 10.8949 15.82 11.005 15.82Z" fill="var(--fill-0, white)"/>
</g>
</svg>
