<svg preserveAspectRatio="none" width="100%" height="100%" overflow="visible" style="display: block;" viewBox="0 0 58 46" fill="none" xmlns="http://www.w3.org/2000/svg">
<g id="Gauge">
<path d="M28.6963 0.00231759C32.4938 -0.0374509 36.2492 0.669015 39.7529 2.06775C38.9944 2.48132 38.3367 3.10268 37.8731 3.90564C37.2036 5.06518 37.0657 6.3859 37.3838 7.58533C34.646 6.51328 31.719 5.97034 28.7588 6.00134C24.7015 6.04393 20.7273 7.15919 17.2402 9.23376C13.7531 11.3085 10.8767 14.2694 8.90333 17.8148C6.9301 21.3602 5.92957 25.3654 6.00392 29.4222C6.07843 33.479 7.2243 37.4448 9.32619 40.9154C10.1842 42.3326 9.73156 44.1773 8.31447 45.0355C6.89742 45.8932 5.05258 45.4396 4.19435 44.0228C1.54415 39.6467 0.0987292 34.6468 0.00489746 29.5316C-0.0888215 24.4165 1.17225 19.3671 3.66017 14.8968C6.14835 10.4265 9.77604 6.69344 14.1729 4.07751C18.5697 1.46173 23.5805 0.0559371 28.6963 0.00231759ZM46.9502 6.224C49.7917 8.4636 52.1997 11.2234 54.0381 14.3695C56.6192 18.7867 57.9866 23.8081 58 28.9242C58.0133 34.0403 56.6724 39.0696 54.1143 43.5004C53.2857 44.9347 51.4513 45.4263 50.0166 44.598C48.5821 43.7696 48.0909 41.9351 48.919 40.5004C50.9477 36.9864 52.0106 32.9973 52 28.9398C51.9893 24.8823 50.9055 20.8992 48.8584 17.3959C47.4265 14.9456 45.5577 12.7921 43.3565 11.0336C44.5547 10.7095 45.6301 9.9308 46.2998 8.77087C46.7634 7.96788 46.9713 7.08773 46.9502 6.224Z" fill="var(--fill-0, #333333)" style="mix-blend-mode:plus-lighter"/>
</g>
</svg>
