<svg preserveAspectRatio="none" width="100%" height="100%" overflow="visible" style="display: block;" viewBox="0 0 58 46" fill="none" xmlns="http://www.w3.org/2000/svg">
<g id="Gauge">
<path d="M28.6963 0.00134113C32.4939 -0.0384283 36.2492 0.668955 39.753 2.06775C38.9945 2.48132 38.3366 3.10273 37.8731 3.90564C37.2037 5.06525 37.0656 6.38589 37.3838 7.58533C34.646 6.51322 31.7191 5.96936 28.7588 6.00036C24.7015 6.04294 20.7274 7.1582 17.2403 9.23279C13.753 11.3075 10.8768 14.2683 8.90334 17.8138C6.92996 21.3594 5.92958 25.3642 6.00393 29.4213C6.07835 33.4782 7.22427 37.4437 9.32619 40.9144C10.1844 42.3316 9.73165 44.1763 8.31447 45.0345C6.89731 45.8925 5.05258 45.4389 4.19436 44.0218C1.54411 39.6456 0.0986575 34.6459 0.00490444 29.5306C-0.0888107 24.4154 1.17211 19.3662 3.66018 14.8959C6.1484 10.4254 9.77592 6.69247 14.1729 4.07654C18.5697 1.46074 23.5805 0.0549478 28.6963 0.00134113ZM46.9502 6.224C49.7915 8.46354 52.1998 11.2226 54.0381 14.3685C56.6193 18.7858 57.9866 23.8071 58 28.9232C58.0134 34.0395 56.6724 39.0685 54.1143 43.4994C53.2858 44.9341 51.4514 45.4254 50.0166 44.597C48.582 43.7685 48.0906 41.9341 48.919 40.4994C50.9478 36.9853 52.0106 32.9965 52 28.9388C51.9893 24.8812 50.9056 20.8982 48.8584 17.3949C47.4267 14.9449 45.5583 12.792 43.3574 11.0336C44.5553 10.7094 45.6303 9.93034 46.2998 8.77087C46.7633 7.96803 46.9713 7.08757 46.9502 6.224Z" fill="var(--fill-0, #333333)" style="mix-blend-mode:plus-lighter"/>
</g>
</svg>
