<svg preserveAspectRatio="none" width="100%" height="100%" overflow="visible" style="display: block;" viewBox="0 0 36 17" fill="none" xmlns="http://www.w3.org/2000/svg">
<path id="&#244;&#128;&#186;&#184;" d="M6.54626 16.7303C5.77787 16.7303 5.08453 16.6883 4.46622 16.6043C3.84791 16.5262 3.29264 16.3791 2.80039 16.163C2.30815 15.9529 1.86093 15.6498 1.45873 15.2536C1.06853 14.8634 0.768382 14.4252 0.558278 13.9389C0.348173 13.4467 0.2011 12.8914 0.117058 12.2731C0.0390194 11.6548 0 10.9615 0 10.1931V6.51024C0 5.36967 0.0960478 4.39419 0.288143 3.58378C0.480239 2.76738 0.873435 2.06503 1.46773 1.47673C2.05602 0.888442 2.76137 0.495246 3.58378 0.297148C4.40619 0.0990493 5.38168 0 6.51024 0H24.6633C25.4317 0 26.125 0.0420209 26.7433 0.126063C27.3616 0.204102 27.9169 0.351175 28.4091 0.567282C28.9014 0.777387 29.3486 1.08054 29.7508 1.47673C30.141 1.86693 30.4411 2.30815 30.6512 2.80039C30.8614 3.28664 31.0054 3.83891 31.0835 4.45722C31.1675 5.07553 31.2095 5.76887 31.2095 6.53725V10.1931C31.2095 10.9615 31.1675 11.6548 31.0835 12.2731C31.0054 12.8854 30.8614 13.4377 30.6512 13.9299C30.4411 14.4222 30.141 14.8634 29.7508 15.2536C29.3546 15.6498 28.9074 15.9529 28.4091 16.163C27.9169 16.3791 27.3616 16.5262 26.7433 16.6043C26.125 16.6883 25.4317 16.7303 24.6633 16.7303H6.54626ZM6.2221 14.065H24.9874C25.6117 14.065 26.164 14.011 26.6443 13.9029C27.1245 13.7949 27.5087 13.5938 27.7968 13.2996C28.079 13.0115 28.2741 12.6333 28.3821 12.1651C28.4902 11.6968 28.5442 11.1475 28.5442 10.5172V6.2221C28.5442 5.58578 28.4902 5.0335 28.3821 4.56527C28.2801 4.09704 28.085 3.71585 27.7968 3.4217C27.5027 3.13356 27.1155 2.93546 26.6353 2.82741C26.161 2.71935 25.6117 2.66533 24.9874 2.66533H6.24911C5.61279 2.66533 5.05151 2.71935 4.56527 2.82741C4.08503 2.92946 3.70084 3.12756 3.4127 3.4217C3.12455 3.71585 2.92646 4.10004 2.8184 4.57428C2.71635 5.04851 2.66533 5.60679 2.66533 6.24911V10.5172C2.66533 11.1475 2.71635 11.6968 2.8184 12.1651C2.92646 12.6333 3.12455 13.0115 3.4127 13.2996C3.70684 13.5938 4.09104 13.7949 4.56527 13.9029C5.03951 14.011 5.59178 14.065 6.2221 14.065ZM32.9744 11.6518V5.07853C33.3106 5.10254 33.6587 5.25261 34.0189 5.52875C34.3851 5.80489 34.6943 6.18608 34.9464 6.67232C35.2045 7.15256 35.3336 7.71684 35.3336 8.36516C35.3336 9.01348 35.2045 9.58077 34.9464 10.067C34.6943 10.5472 34.3851 10.9284 34.0189 11.2106C33.6587 11.4867 33.3106 11.6338 32.9744 11.6518Z" fill="var(--fill-0, white)" fill-opacity="0.5"/>
</svg>
