<svg preserveAspectRatio="none" width="100%" height="100%" overflow="visible" style="display: block;" viewBox="0 0 51 51" fill="none" xmlns="http://www.w3.org/2000/svg">
<g id="AirDrop">
<rect width="51" height="51" rx="25.5" fill="var(--fill-0, #111111)" fill-opacity="0.6" style="mix-blend-mode:luminosity"/>
<rect width="51" height="51" rx="25.5" fill="var(--fill-1, #777777)" style="mix-blend-mode:color-dodge"/>
<rect width="51" height="51" rx="25.5" fill="var(--fill-2, #222222)" style="mix-blend-mode:plus-lighter"/>
<path id="Vectors" d="M26 14C32.6274 14 38 19.3726 38 26C38 30.6021 35.4079 34.5962 31.6055 36.6094L30.5957 34.8799C33.8054 33.2154 36 29.8653 36 26C36 20.4772 31.5228 16 26 16C20.4772 16 16 20.4772 16 26C16 29.865 18.1941 33.2152 21.4033 34.8799L20.3936 36.6094C16.5915 34.5961 14 30.6017 14 26C14 19.3726 19.3726 14 26 14ZM25.999 17.333C30.7854 17.333 34.666 21.2136 34.666 26C34.6659 29.3734 32.7368 32.2938 29.9229 33.7256L28.9141 31.9951C31.1348 30.9135 32.6659 28.6362 32.666 26C32.666 22.3182 29.6808 19.333 25.999 19.333C22.3174 19.3333 19.333 22.3184 19.333 26C19.3331 28.6364 20.864 30.9147 23.085 31.9961L22.0752 33.7266C19.2615 32.2948 17.3331 29.3734 17.333 26C17.333 21.2138 21.2129 17.3333 25.999 17.333ZM26 21C28.7614 21 31 23.2386 31 26C31 28.0226 29.798 29.7624 28.0703 30.5498L27.0537 28.8057C28.1901 28.3787 29 27.2856 29 26C29 24.3431 27.6569 23 26 23C24.3431 23 23 24.3431 23 26C23 27.2852 23.8094 28.3785 24.9453 28.8057L23.9287 30.5498C22.2014 29.7622 21 28.0223 21 26C21 23.2386 23.2386 21 26 21ZM25.999 24.333C26.9192 24.333 27.6658 25.0789 27.666 25.999C27.666 26.9194 26.9194 27.666 25.999 27.666C25.0789 27.6658 24.333 26.9192 24.333 25.999C24.3333 25.079 25.079 24.3333 25.999 24.333Z" fill="var(--fill-0, white)"/>
</g>
</svg>
