<svg preserveAspectRatio="none" width="100%" height="100%" overflow="visible" style="display: block;" viewBox="0 0 142 142" fill="none" xmlns="http://www.w3.org/2000/svg">
<g id="Ticks">
<path d="M69.6471 0.967319C69.6471 0.433083 70.0801 0 70.6144 0C71.1486 0 71.5817 0.433084 71.5817 0.96732V4.8366C71.5817 5.37084 71.1486 5.80392 70.6144 5.80392C70.0801 5.80392 69.6471 5.37084 69.6471 4.8366V0.967319Z" fill="#999999" style="mix-blend-mode:plus-lighter"/>
<path fill-rule="evenodd" clip-rule="evenodd" d="M140.261 69.6471C140.796 69.6471 141.229 70.0801 141.229 70.6144C141.229 71.1486 140.796 71.5817 140.261 71.5817H136.392C135.858 71.5817 135.425 71.1486 135.425 70.6144C135.425 70.0801 135.858 69.6471 136.392 69.6471H140.261Z" fill="#999999" style="mix-blend-mode:plus-lighter"/>
<path fill-rule="evenodd" clip-rule="evenodd" d="M4.8366 70.6144C5.37084 70.6144 5.80392 71.0475 5.80392 71.5817C5.80392 72.1159 5.37084 72.549 4.8366 72.549H0.967319C0.433083 72.549 0 72.1159 0 71.5817C0 71.0475 0.433084 70.6144 0.96732 70.6144H4.8366Z" fill="#999999" style="mix-blend-mode:plus-lighter"/>
<path d="M69.6471 136.392C69.6471 135.858 70.0801 135.425 70.6144 135.425C71.1486 135.425 71.5817 135.858 71.5817 136.392V140.261C71.5817 140.796 71.1486 141.229 70.6144 141.229C70.0801 141.229 69.6471 140.796 69.6471 140.261V136.392Z" fill="#999999" style="mix-blend-mode:plus-lighter"/>
<path fill-rule="evenodd" clip-rule="evenodd" d="M76.9325 1.24774C76.9883 0.716431 77.4643 0.33099 77.9956 0.386833C78.5269 0.442676 78.9123 0.918657 78.8565 1.44997L78.452 5.29805C78.3962 5.82936 77.9202 6.2148 77.3889 6.15896C76.8576 6.10312 76.4722 5.62714 76.528 5.09583L76.9325 1.24774Z" fill="#999999" style="mix-blend-mode:plus-lighter"/>
<path fill-rule="evenodd" clip-rule="evenodd" d="M139.981 76.9325C140.512 76.9883 140.898 77.4643 140.842 77.9956C140.786 78.5269 140.31 78.9123 139.779 78.8565L135.931 78.452C135.399 78.3962 135.014 77.9202 135.07 77.3889C135.126 76.8576 135.602 76.4722 136.133 76.528L139.981 76.9325Z" fill="#999999" style="mix-blend-mode:plus-lighter"/>
<path fill-rule="evenodd" clip-rule="evenodd" d="M5.19694 63.7387C5.72825 63.7946 6.11369 64.2706 6.05785 64.8019C6.002 65.3332 5.52602 65.7186 4.99471 65.6628L1.14663 65.2583C0.615318 65.2025 0.229877 64.7265 0.28572 64.1952C0.341563 63.6639 0.817544 63.2784 1.34885 63.3343L5.19694 63.7387Z" fill="#999999" style="mix-blend-mode:plus-lighter"/>
<path fill-rule="evenodd" clip-rule="evenodd" d="M62.7767 135.931C62.8325 135.399 63.3085 135.014 63.8398 135.07C64.3711 135.126 64.7566 135.602 64.7008 136.133L64.2963 139.981C64.2405 140.512 63.7645 140.898 63.2332 140.842C62.7019 140.786 62.3164 140.31 62.3723 139.779L62.7767 135.931Z" fill="#999999" style="mix-blend-mode:plus-lighter"/>
<path fill-rule="evenodd" clip-rule="evenodd" d="M84.1486 2.28816C84.2597 1.7656 84.7734 1.43202 85.2959 1.54309C85.8185 1.65417 86.1521 2.16783 86.041 2.69039L85.2365 6.47512C85.1255 6.99768 84.6118 7.33126 84.0892 7.22019C83.5667 7.10911 83.2331 6.59545 83.3442 6.07289L84.1486 2.28816Z" fill="#999999" style="mix-blend-mode:plus-lighter"/>
<path fill-rule="evenodd" clip-rule="evenodd" d="M138.941 84.1486C139.463 84.2597 139.797 84.7734 139.686 85.2959C139.575 85.8185 139.061 86.1521 138.538 86.041L134.754 85.2365C134.231 85.1255 133.898 84.6118 134.009 84.0892C134.12 83.5667 134.633 83.2331 135.156 83.3442L138.941 84.1486Z" fill="#999999" style="mix-blend-mode:plus-lighter"/>
<path fill-rule="evenodd" clip-rule="evenodd" d="M6.274 56.9384C6.79657 57.0495 7.13014 57.5631 7.01907 58.0857C6.90799 58.6083 6.39433 58.9418 5.87177 58.8308L2.08704 58.0263C1.56448 57.9152 1.2309 57.4016 1.34198 56.879C1.45305 56.3564 1.96671 56.0229 2.48928 56.1339L6.274 56.9384Z" fill="#999999" style="mix-blend-mode:plus-lighter"/>
<path fill-rule="evenodd" clip-rule="evenodd" d="M55.9922 134.754C56.1033 134.231 56.617 133.897 57.1395 134.009C57.6621 134.12 57.9957 134.633 57.8846 135.156L57.0801 138.941C56.969 139.463 56.4554 139.797 55.9328 139.686C55.4103 139.575 55.0767 139.061 55.1878 138.538L55.9922 134.754Z" fill="#999999" style="mix-blend-mode:plus-lighter"/>
<path fill-rule="evenodd" clip-rule="evenodd" d="M91.2165 4.07717C91.3816 3.56908 91.9273 3.29103 92.4354 3.45611C92.9435 3.6212 93.2216 4.16692 93.0565 4.67501L91.8608 8.35491C91.6957 8.863 91.15 9.14106 90.6419 8.97597C90.1338 8.81088 89.8558 8.26517 90.0209 7.75708L91.2165 4.07717Z" fill="#999999" style="mix-blend-mode:plus-lighter"/>
<path fill-rule="evenodd" clip-rule="evenodd" d="M137.152 91.2165C137.66 91.3816 137.938 91.9273 137.773 92.4354C137.608 92.9435 137.062 93.2216 136.554 93.0565L132.874 91.8608C132.366 91.6957 132.088 91.15 132.253 90.6419C132.418 90.1338 132.964 89.8558 133.472 90.0209L137.152 91.2165Z" fill="#999999" style="mix-blend-mode:plus-lighter"/>
<path fill-rule="evenodd" clip-rule="evenodd" d="M8.056 50.2879C8.56408 50.453 8.84214 50.9987 8.67705 51.5068C8.51196 52.0149 7.96625 52.293 7.45816 52.1279L3.77825 50.9322C3.27016 50.7671 2.99211 50.2214 3.1572 49.7133C3.32228 49.2052 3.868 48.9272 4.37609 49.0923L8.056 50.2879Z" fill="#999999" style="mix-blend-mode:plus-lighter"/>
<path fill-rule="evenodd" clip-rule="evenodd" d="M49.368 132.874C49.533 132.366 50.0788 132.088 50.5868 132.253C51.0949 132.418 51.373 132.964 51.2079 133.472L50.0122 137.152C49.8471 137.66 49.3014 137.938 48.7933 137.773C48.2852 137.608 48.0072 137.062 48.1723 136.554L49.368 132.874Z" fill="#999999" style="mix-blend-mode:plus-lighter"/>
<path fill-rule="evenodd" clip-rule="evenodd" d="M98.0587 6.59518C98.276 6.10713 98.8478 5.88764 99.3358 6.10493C99.8239 6.32223 100.043 6.89402 99.8261 7.38207L98.2523 10.9168C98.035 11.4049 97.4632 11.6244 96.9752 11.4071C96.4871 11.1898 96.2676 10.618 96.4849 10.1299L98.0587 6.59518Z" fill="#999999" style="mix-blend-mode:plus-lighter"/>
<path fill-rule="evenodd" clip-rule="evenodd" d="M134.634 98.0587C135.122 98.276 135.341 98.8478 135.124 99.3358C134.907 99.8239 134.335 100.043 133.847 99.8261L130.312 98.2523C129.824 98.035 129.604 97.4632 129.822 96.9752C130.039 96.4871 130.611 96.2676 131.099 96.4849L134.634 98.0587Z" fill="#999999" style="mix-blend-mode:plus-lighter"/>
<path fill-rule="evenodd" clip-rule="evenodd" d="M10.5234 43.8601C11.0114 44.0774 11.2309 44.6492 11.0136 45.1373C10.7963 45.6253 10.2245 45.8448 9.7365 45.6275L6.20173 44.0537C5.71369 43.8365 5.4942 43.2647 5.71149 42.7766C5.92878 42.2886 6.50058 42.0691 6.98862 42.2864L10.5234 43.8601Z" fill="#999999" style="mix-blend-mode:plus-lighter"/>
<path fill-rule="evenodd" clip-rule="evenodd" d="M42.9765 130.312C43.1937 129.824 43.7655 129.604 44.2536 129.822C44.7416 130.039 44.9611 130.611 44.7438 131.099L43.1701 134.634C42.9528 135.122 42.381 135.341 41.8929 135.124C41.4049 134.907 41.1854 134.335 41.4027 133.847L42.9765 130.312Z" fill="#999999" style="mix-blend-mode:plus-lighter"/>
<path fill-rule="evenodd" clip-rule="evenodd" d="M104.6 9.8146C104.867 9.35193 105.459 9.19341 105.922 9.46053C106.384 9.72765 106.543 10.3193 106.276 10.7819L104.341 14.1328C104.074 14.5955 103.482 14.754 103.02 14.4869C102.557 14.2198 102.398 13.6282 102.666 13.1655L104.6 9.8146Z" fill="#999999" style="mix-blend-mode:plus-lighter"/>
<path fill-rule="evenodd" clip-rule="evenodd" d="M131.414 104.6C131.877 104.867 132.035 105.459 131.768 105.922C131.501 106.384 130.91 106.543 130.447 106.276L127.096 104.341C126.633 104.074 126.475 103.482 126.742 103.02C127.009 102.557 127.601 102.398 128.063 102.666L131.414 104.6Z" fill="#999999" style="mix-blend-mode:plus-lighter"/>
<path fill-rule="evenodd" clip-rule="evenodd" d="M13.6492 37.7255C14.1118 37.9926 14.2703 38.5842 14.0032 39.0469C13.7361 39.5095 13.1445 39.6681 12.6818 39.4009L9.33094 37.4663C8.86827 37.1992 8.70975 36.6076 8.97687 36.1449C9.24399 35.6823 9.83559 35.5237 10.2983 35.7909L13.6492 37.7255Z" fill="#999999" style="mix-blend-mode:plus-lighter"/>
<path fill-rule="evenodd" clip-rule="evenodd" d="M36.8878 127.096C37.1549 126.633 37.7465 126.475 38.2091 126.742C38.6718 127.009 38.8303 127.601 38.5632 128.063L36.6286 131.414C36.3615 131.877 35.7699 132.035 35.3072 131.768C34.8445 131.501 34.686 130.91 34.9531 130.447L36.8878 127.096Z" fill="#999999" style="mix-blend-mode:plus-lighter"/>
<path fill-rule="evenodd" clip-rule="evenodd" d="M110.769 13.7001C111.083 13.2679 111.688 13.1721 112.12 13.4861C112.553 13.8002 112.648 14.4051 112.334 14.8373L110.06 17.9676C109.746 18.3998 109.141 18.4956 108.709 18.1816C108.277 17.8676 108.181 17.2627 108.495 16.8305L110.769 13.7001Z" fill="#999999" style="mix-blend-mode:plus-lighter"/>
<path fill-rule="evenodd" clip-rule="evenodd" d="M127.529 110.769C127.961 111.083 128.057 111.688 127.743 112.12C127.429 112.553 126.824 112.648 126.391 112.334L123.261 110.06C122.829 109.746 122.733 109.141 123.047 108.709C123.361 108.277 123.966 108.181 124.398 108.495L127.529 110.769Z" fill="#999999" style="mix-blend-mode:plus-lighter"/>
<path fill-rule="evenodd" clip-rule="evenodd" d="M17.399 31.9512C17.8312 32.2652 17.9271 32.8701 17.613 33.3023C17.299 33.7345 16.6941 33.8303 16.2619 33.5163L13.1316 31.242C12.6994 30.928 12.6036 30.3231 12.9176 29.8909C13.2316 29.4587 13.8365 29.3629 14.2687 29.6769L17.399 31.9512Z" fill="#999999" style="mix-blend-mode:plus-lighter"/>
<path fill-rule="evenodd" clip-rule="evenodd" d="M31.1686 123.261C31.4826 122.829 32.0875 122.733 32.5197 123.047C32.952 123.361 33.0478 123.966 32.7337 124.398L30.4594 127.529C30.1454 127.961 29.5405 128.057 29.1083 127.743C28.6761 127.429 28.5803 126.824 28.8943 126.391L31.1686 123.261Z" fill="#999999" style="mix-blend-mode:plus-lighter"/>
<path fill-rule="evenodd" clip-rule="evenodd" d="M116.498 18.2093C116.856 17.8122 117.468 17.7802 117.865 18.1377C118.262 18.4951 118.294 19.1068 117.936 19.5038L115.347 22.3792C114.99 22.7762 114.378 22.8083 113.981 22.4508C113.584 22.0933 113.552 21.4817 113.909 21.0847L116.498 18.2093Z" fill="#999999" style="mix-blend-mode:plus-lighter"/>
<path fill-rule="evenodd" clip-rule="evenodd" d="M123.019 116.498C123.417 116.856 123.449 117.468 123.091 117.865C122.734 118.262 122.122 118.294 121.725 117.936L118.85 115.347C118.453 114.99 118.42 114.378 118.778 113.981C119.135 113.584 119.747 113.552 120.144 113.909L123.019 116.498Z" fill="#999999" style="mix-blend-mode:plus-lighter"/>
<path fill-rule="evenodd" clip-rule="evenodd" d="M21.732 26.6005C22.129 26.9579 22.161 27.5696 21.8036 27.9666C21.4461 28.3636 20.8345 28.3956 20.4374 28.0382L17.562 25.4491C17.165 25.0916 17.1329 24.48 17.4904 24.083C17.8479 23.686 18.4595 23.6539 18.8565 24.0114L21.732 26.6005Z" fill="#999999" style="mix-blend-mode:plus-lighter"/>
<path fill-rule="evenodd" clip-rule="evenodd" d="M25.8816 118.85C26.2391 118.453 26.8507 118.42 27.2477 118.778C27.6447 119.135 27.6768 119.747 27.3193 120.144L24.7303 123.019C24.3728 123.417 23.7612 123.449 23.3641 123.091C22.9671 122.734 22.9351 122.122 23.2925 121.725L25.8816 118.85Z" fill="#999999" style="mix-blend-mode:plus-lighter"/>
<path fill-rule="evenodd" clip-rule="evenodd" d="M121.725 23.2925C122.122 22.9351 122.734 22.9671 123.091 23.3641C123.449 23.7612 123.417 24.3728 123.019 24.7303L120.144 27.3193C119.747 27.6768 119.135 27.6447 118.778 27.2477C118.42 26.8507 118.453 26.2391 118.85 25.8816L121.725 23.2925Z" fill="#999999" style="mix-blend-mode:plus-lighter"/>
<path fill-rule="evenodd" clip-rule="evenodd" d="M117.936 121.725C118.294 122.122 118.262 122.734 117.865 123.091C117.468 123.449 116.856 123.417 116.498 123.019L113.909 120.144C113.552 119.747 113.584 119.135 113.981 118.778C114.378 118.42 114.99 118.453 115.347 118.85L117.936 121.725Z" fill="#999999" style="mix-blend-mode:plus-lighter"/>
<path fill-rule="evenodd" clip-rule="evenodd" d="M26.6005 21.732C26.9579 22.129 26.9259 22.7406 26.5289 23.0981C26.1318 23.4556 25.5202 23.4235 25.1627 23.0265L22.5737 20.1511C22.2162 19.754 22.2483 19.1424 22.6453 18.7849C23.0423 18.4275 23.6539 18.4595 24.0114 18.8565L26.6005 21.732Z" fill="#999999" style="mix-blend-mode:plus-lighter"/>
<path fill-rule="evenodd" clip-rule="evenodd" d="M21.0847 113.909C21.4817 113.552 22.0934 113.584 22.4508 113.981C22.8083 114.378 22.7762 114.99 22.3792 115.347L19.5038 117.936C19.1068 118.294 18.4951 118.262 18.1377 117.865C17.7802 117.468 17.8123 116.856 18.2093 116.499L21.0847 113.909Z" fill="#999999" style="mix-blend-mode:plus-lighter"/>
<path fill-rule="evenodd" clip-rule="evenodd" d="M126.391 28.8943C126.824 28.5803 127.429 28.6761 127.743 29.1083C128.057 29.5405 127.961 30.1454 127.529 30.4594L124.398 32.7337C123.966 33.0478 123.361 32.952 123.047 32.5197C122.733 32.0875 122.829 31.4826 123.261 31.1686L126.391 28.8943Z" fill="#999999" style="mix-blend-mode:plus-lighter"/>
<path fill-rule="evenodd" clip-rule="evenodd" d="M112.334 126.391C112.648 126.824 112.553 127.429 112.12 127.743C111.688 128.057 111.083 127.961 110.769 127.529L108.495 124.398C108.181 123.966 108.277 123.361 108.709 123.047C109.141 122.733 109.746 122.829 110.06 123.261L112.334 126.391Z" fill="#999999" style="mix-blend-mode:plus-lighter"/>
<path fill-rule="evenodd" clip-rule="evenodd" d="M31.9512 17.399C32.2652 17.8312 32.1694 18.4362 31.7372 18.7502C31.305 19.0642 30.7 18.9684 30.386 18.5362L28.1117 15.4059C27.7977 14.9737 27.8935 14.3687 28.3257 14.0547C28.7579 13.7407 29.3629 13.8365 29.6769 14.2687L31.9512 17.399Z" fill="#999999" style="mix-blend-mode:plus-lighter"/>
<path fill-rule="evenodd" clip-rule="evenodd" d="M16.8305 108.495C17.2627 108.181 17.8676 108.277 18.1816 108.709C18.4956 109.141 18.3998 109.746 17.9676 110.06L14.8373 112.334C14.4051 112.648 13.8002 112.553 13.4861 112.12C13.1721 111.688 13.2679 111.083 13.7001 110.769L16.8305 108.495Z" fill="#999999" style="mix-blend-mode:plus-lighter"/>
<path fill-rule="evenodd" clip-rule="evenodd" d="M130.447 34.9531C130.91 34.686 131.501 34.8445 131.768 35.3072C132.035 35.7699 131.877 36.3615 131.414 36.6286L128.063 38.5632C127.601 38.8303 127.009 38.6718 126.742 38.2092C126.475 37.7465 126.633 37.1549 127.096 36.8878L130.447 34.9531Z" fill="#999999" style="mix-blend-mode:plus-lighter"/>
<path fill-rule="evenodd" clip-rule="evenodd" d="M106.276 130.447C106.543 130.91 106.384 131.501 105.922 131.768C105.459 132.035 104.867 131.877 104.6 131.414L102.666 128.063C102.398 127.601 102.557 127.009 103.02 126.742C103.482 126.475 104.074 126.633 104.341 127.096L106.276 130.447Z" fill="#999999" style="mix-blend-mode:plus-lighter"/>
<path fill-rule="evenodd" clip-rule="evenodd" d="M37.7255 13.6492C37.9926 14.1118 37.8341 14.7034 37.3714 14.9705C36.9088 15.2377 36.3172 15.0791 36.05 14.6165L34.1154 11.2656C33.8483 10.8029 34.0068 10.2113 34.4695 9.94419C34.9321 9.67707 35.5237 9.83559 35.7909 10.2983L37.7255 13.6492Z" fill="#999999" style="mix-blend-mode:plus-lighter"/>
<path fill-rule="evenodd" clip-rule="evenodd" d="M13.1655 102.666C13.6282 102.398 14.2198 102.557 14.4869 103.02C14.754 103.482 14.5955 104.074 14.1328 104.341L10.7819 106.276C10.3193 106.543 9.72765 106.384 9.46053 105.922C9.19342 105.459 9.35194 104.867 9.8146 104.6L13.1655 102.666Z" fill="#999999" style="mix-blend-mode:plus-lighter"/>
<path fill-rule="evenodd" clip-rule="evenodd" d="M133.847 41.4027C134.335 41.1854 134.907 41.4049 135.124 41.8929C135.341 42.381 135.122 42.9528 134.634 43.1701L131.099 44.7438C130.611 44.9611 130.039 44.7416 129.822 44.2536C129.604 43.7655 129.824 43.1937 130.312 42.9765L133.847 41.4027Z" fill="#999999" style="mix-blend-mode:plus-lighter"/>
<path fill-rule="evenodd" clip-rule="evenodd" d="M99.8261 133.847C100.043 134.335 99.8239 134.907 99.3358 135.124C98.8478 135.341 98.276 135.122 98.0587 134.634L96.4849 131.099C96.2676 130.611 96.4871 130.039 96.9752 129.822C97.4632 129.604 98.035 129.824 98.2523 130.312L99.8261 133.847Z" fill="#999999" style="mix-blend-mode:plus-lighter"/>
<path fill-rule="evenodd" clip-rule="evenodd" d="M43.8601 10.5234C44.0774 11.0114 43.8579 11.5832 43.3699 11.8005C42.8819 12.0178 42.3101 11.7983 42.0928 11.3103L40.519 7.77551C40.3017 7.28746 40.5212 6.71567 41.0092 6.49838C41.4973 6.28108 42.0691 6.50058 42.2864 6.98862L43.8601 10.5234Z" fill="#999999" style="mix-blend-mode:plus-lighter"/>
<path fill-rule="evenodd" clip-rule="evenodd" d="M10.1299 96.4849C10.618 96.2676 11.1898 96.4871 11.4071 96.9752C11.6244 97.4632 11.4049 98.035 10.9168 98.2523L7.38207 99.8261C6.89402 100.043 6.32223 99.8239 6.10493 99.3358C5.88764 98.8478 6.10713 98.276 6.59518 98.0587L10.1299 96.4849Z" fill="#999999" style="mix-blend-mode:plus-lighter"/>
<path fill-rule="evenodd" clip-rule="evenodd" d="M136.554 48.1723C137.062 48.0072 137.608 48.2852 137.773 48.7933C137.938 49.3014 137.66 49.8471 137.152 50.0122L133.472 51.2079C132.964 51.373 132.418 51.0949 132.253 50.5868C132.088 50.0788 132.366 49.533 132.874 49.368L136.554 48.1723Z" fill="#999999" style="mix-blend-mode:plus-lighter"/>
<path fill-rule="evenodd" clip-rule="evenodd" d="M93.0565 136.554C93.2216 137.062 92.9435 137.608 92.4354 137.773C91.9273 137.938 91.3816 137.66 91.2165 137.152L90.0209 133.472C89.8558 132.964 90.1338 132.418 90.6419 132.253C91.15 132.088 91.6957 132.366 91.8608 132.874L93.0565 136.554Z" fill="#999999" style="mix-blend-mode:plus-lighter"/>
<path fill-rule="evenodd" clip-rule="evenodd" d="M50.2879 8.056C50.453 8.56408 50.175 9.1098 49.6669 9.27489C49.1588 9.43998 48.6131 9.16192 48.448 8.65383L47.2523 4.97393C47.0872 4.46584 47.3653 3.92012 47.8734 3.75503C48.3814 3.58994 48.9272 3.868 49.0923 4.37609L50.2879 8.056Z" fill="#999999" style="mix-blend-mode:plus-lighter"/>
<path fill-rule="evenodd" clip-rule="evenodd" d="M7.75708 90.0209C8.26517 89.8558 8.81088 90.1338 8.97597 90.6419C9.14106 91.15 8.863 91.6957 8.35491 91.8608L4.67501 93.0565C4.16692 93.2216 3.6212 92.9435 3.45611 92.4354C3.29103 91.9273 3.56908 91.3816 4.07717 91.2165L7.75708 90.0209Z" fill="#999999" style="mix-blend-mode:plus-lighter"/>
<path fill-rule="evenodd" clip-rule="evenodd" d="M138.538 55.1878C139.061 55.0767 139.575 55.4103 139.686 55.9328C139.797 56.4554 139.463 56.969 138.941 57.0801L135.156 57.8846C134.633 57.9957 134.12 57.6621 134.009 57.1395C133.897 56.617 134.231 56.1033 134.754 55.9922L138.538 55.1878Z" fill="#999999" style="mix-blend-mode:plus-lighter"/>
<path fill-rule="evenodd" clip-rule="evenodd" d="M86.041 138.538C86.1521 139.061 85.8185 139.575 85.2959 139.686C84.7734 139.797 84.2597 139.463 84.1486 138.941L83.3442 135.156C83.2331 134.633 83.5667 134.12 84.0892 134.009C84.6118 133.897 85.1255 134.231 85.2365 134.754L86.041 138.538Z" fill="#999999" style="mix-blend-mode:plus-lighter"/>
<path fill-rule="evenodd" clip-rule="evenodd" d="M56.9384 6.274C57.0495 6.79657 56.7159 7.31023 56.1933 7.4213C55.6708 7.53238 55.1571 7.1988 55.046 6.67624L54.2416 2.89151C54.1305 2.36895 54.4641 1.85528 54.9866 1.74421C55.5092 1.63314 56.0229 1.96671 56.1339 2.48928L56.9384 6.274Z" fill="#999999" style="mix-blend-mode:plus-lighter"/>
<path fill-rule="evenodd" clip-rule="evenodd" d="M6.07289 83.3442C6.59545 83.2331 7.10911 83.5667 7.22019 84.0892C7.33126 84.6118 6.99768 85.1255 6.47512 85.2365L2.69039 86.041C2.16783 86.1521 1.65417 85.8185 1.54309 85.2959C1.43202 84.7734 1.7656 84.2597 2.28816 84.1486L6.07289 83.3442Z" fill="#999999" style="mix-blend-mode:plus-lighter"/>
<path fill-rule="evenodd" clip-rule="evenodd" d="M139.779 62.3723C140.31 62.3164 140.786 62.7019 140.842 63.2332C140.898 63.7645 140.512 64.2405 139.981 64.2963L136.133 64.7008C135.602 64.7566 135.126 64.3711 135.07 63.8398C135.014 63.3085 135.399 62.8325 135.931 62.7767L139.779 62.3723Z" fill="#999999" style="mix-blend-mode:plus-lighter"/>
<path fill-rule="evenodd" clip-rule="evenodd" d="M78.8565 139.779C78.9123 140.31 78.5269 140.786 77.9956 140.842C77.4643 140.898 76.9883 140.512 76.9325 139.981L76.528 136.133C76.4722 135.602 76.8576 135.126 77.3889 135.07C77.9202 135.014 78.3962 135.399 78.452 135.931L78.8565 139.779Z" fill="#999999" style="mix-blend-mode:plus-lighter"/>
<path fill-rule="evenodd" clip-rule="evenodd" d="M63.7387 5.19694C63.7946 5.72825 63.4091 6.20423 62.8778 6.26007C62.3465 6.31592 61.8705 5.93047 61.8147 5.39916L61.4102 1.55108C61.3544 1.01977 61.7398 0.543788 62.2711 0.487945C62.8025 0.432102 63.2784 0.817544 63.3343 1.34885L63.7387 5.19694Z" fill="#999999" style="mix-blend-mode:plus-lighter"/>
<path fill-rule="evenodd" clip-rule="evenodd" d="M5.09583 76.528C5.62714 76.4722 6.10312 76.8576 6.15896 77.3889C6.2148 77.9202 5.82936 78.3962 5.29805 78.452L1.44997 78.8565C0.918656 78.9123 0.442676 78.5269 0.386833 77.9956C0.33099 77.4643 0.716432 76.9883 1.24774 76.9325L5.09583 76.528Z" fill="#999999" style="mix-blend-mode:plus-lighter"/>
</g>
</svg>
