<svg preserveAspectRatio="none" width="100%" height="100%" overflow="visible" style="display: block;" viewBox="0 0 146 26" fill="none" xmlns="http://www.w3.org/2000/svg">
<g id="Chart" clip-path="url(#clip0_3_3136)">
<g id="Fill">
<mask id="mask0_3_3136" style="mask-type:alpha" maskUnits="userSpaceOnUse" x="inf" y="inf" width="-nan" height="-nan">
<g id="Line" opacity="0.75">
</g>
</mask>
<g mask="url(#mask0_3_3136)">
<rect id="Gradient" opacity="0.35" x="-8" width="162" height="33" fill="url(#paint0_linear_3_3136)"/>
</g>
</g>
<g id="Line_2">
<path d="M0 24H146" stroke="var(--stroke-0, #999999)" stroke-width="2" stroke-linecap="round" stroke-linejoin="round" stroke-dasharray="4 5" style="mix-blend-mode:plus-lighter"/>
</g>
<g id="Graph">
<path d="M2 19L0 20.5L-8 21V33H154V2H147L145 4L143 1L141 2L139 6L137 8L135 9L133 8L131 9L129 11L127 10L125 13L123 15L121 16L119 14H117L115 12L113 9L111 8L109 9L107 7L105 10L103 12L101 15L99 16L97 15L95 16L93 15L91 12L89 10L87 9L85 7L83 6L81 8L79 9L77 8L75 9L73 13L71 14L69 17L67 15L65 17L63 18L61 15L59 12L57 10L55 11L53 13L51 14L49 13L47 11L45 12L43 10L41 8L39 4L37 3L34 7L32 11L30 12L28 16L26 12L24 16L22 17L20 14L18 13L16 8L14 5L12 8.5L10 15L8 18L6.5 17L4 20.5L2 19Z" fill="url(#paint1_linear_3_3136)" style="mix-blend-mode:plus-lighter"/>
<path d="M2 19L0 20.5L-8 21V33H154V2H147L145 4L143 1L141 2L139 6L137 8L135 9L133 8L131 9L129 11L127 10L125 13L123 15L121 16L119 14H117L115 12L113 9L111 8L109 9L107 7L105 10L103 12L101 15L99 16L97 15L95 16L93 15L91 12L89 10L87 9L85 7L83 6L81 8L79 9L77 8L75 9L73 13L71 14L69 17L67 15L65 17L63 18L61 15L59 12L57 10L55 11L53 13L51 14L49 13L47 11L45 12L43 10L41 8L39 4L37 3L34 7L32 11L30 12L28 16L26 12L24 16L22 17L20 14L18 13L16 8L14 5L12 8.5L10 15L8 18L6.5 17L4 20.5L2 19Z" stroke="var(--stroke-0, white)" stroke-width="2" stroke-linejoin="round" style="mix-blend-mode:plus-lighter"/>
</g>
</g>
<defs>
<linearGradient id="paint0_linear_3_3136" x1="-8" y1="0" x2="-8" y2="33" gradientUnits="userSpaceOnUse">
<stop stop-color="white"/>
<stop offset="1" stop-color="white" stop-opacity="0.01"/>
</linearGradient>
<linearGradient id="paint1_linear_3_3136" x1="80.5" y1="5.7284e-08" x2="80.5" y2="26" gradientUnits="userSpaceOnUse">
<stop stop-color="#595959"/>
<stop offset="1"/>
</linearGradient>
<clipPath id="clip0_3_3136">
<rect width="146" height="26" fill="white"/>
</clipPath>
</defs>
</svg>
