<svg preserveAspectRatio="none" width="100%" height="100%" overflow="visible" style="display: block;" viewBox="0 0 58 46" fill="none" xmlns="http://www.w3.org/2000/svg">
<g id="Gauge">
<path d="M28.6963 0.00134096C32.4938 -0.0384279 36.2492 0.668993 39.7529 2.06775C38.9944 2.48132 38.3366 3.10268 37.8731 3.90564C37.2036 5.0652 37.0657 6.38589 37.3838 7.58533C34.646 6.51325 31.719 5.96936 28.7588 6.00036C24.7015 6.04295 20.7273 7.15822 17.2402 9.23279C13.7531 11.3074 10.8768 14.2684 8.90334 17.8138C6.93 21.3593 5.92964 25.3644 6.00392 29.4213C6.07835 33.4781 7.22437 37.4438 9.32619 40.9144C10.1844 42.3316 9.7316 44.1763 8.31447 45.0345C6.89729 45.8926 5.05259 45.439 4.19435 44.0218C1.54421 39.6457 0.0986486 34.6458 0.00489759 29.5306C-0.0887512 24.4155 1.17215 19.3661 3.66017 14.8959C6.14841 10.4255 9.77595 6.69243 14.1729 4.07654C18.5697 1.46076 23.5805 0.0549505 28.6963 0.00134096ZM46.9502 6.224C49.7915 8.4635 52.1997 11.2226 54.0381 14.3685C56.6193 18.7857 57.9865 23.8072 58 28.9232C58.0134 34.0394 56.6723 39.0686 54.1143 43.4994C53.2858 44.9341 51.4514 45.4254 50.0166 44.597C48.5821 43.7685 48.0906 41.9341 48.919 40.4994C50.9477 36.9854 52.0106 32.9964 52 28.9388C51.9893 24.8813 50.9055 20.8981 48.8584 17.3949C47.4266 14.9448 45.5575 12.792 43.3565 11.0336C44.5547 10.7095 45.6301 9.93076 46.2998 8.77087C46.7634 7.96792 46.9713 7.08769 46.9502 6.224Z" fill="var(--fill-0, #333333)" style="mix-blend-mode:plus-lighter"/>
</g>
</svg>
